<svg width="30" height="30" viewBox="0 0 30 30" fill="none" xmlns="http://www.w3.org/2000/svg">
<path d="M17.5 26.25H25C25.3315 26.25 25.6495 26.1183 25.8839 25.8839C26.1183 25.6495 26.25 25.3315 26.25 25V17.5C26.25 17.1685 26.1183 16.8505 25.8839 16.6161C25.6495 16.3817 25.3315 16.25 25 16.25H17.5C17.1685 16.25 16.8505 16.3817 16.6161 16.6161C16.3817 16.8505 16.25 17.1685 16.25 17.5V25C16.25 25.3315 16.3817 25.6495 16.6161 25.8839C16.8505 26.1183 17.1685 26.25 17.5 26.25ZM18.75 18.75H23.75V23.75H18.75V18.75ZM5 26.25L12.5 26.25C12.8315 26.25 13.1495 26.1183 13.3839 25.8839C13.6183 25.6495 13.75 25.3315 13.75 25L13.75 17.5C13.75 17.1685 13.6183 16.8505 13.3839 16.6161C13.1495 16.3817 12.8315 16.25 12.5 16.25H5C4.66848 16.25 4.35054 16.3817 4.11612 16.6161C3.88169 16.8505 3.75 17.1685 3.75 17.5V25C3.75 25.3315 3.88169 25.6495 4.11612 25.8839C4.35054 26.1183 4.66848 26.25 5 26.25ZM6.25 18.75L11.25 18.75L11.25 23.75L6.25 23.75V18.75ZM17.5 13.75L25 13.75C25.3315 13.75 25.6495 13.6183 25.8839 13.3839C26.1183 13.1495 26.25 12.8315 26.25 12.5L26.25 5C26.25 4.66848 26.1183 4.35054 25.8839 4.11612C25.6495 3.88169 25.3315 3.75 25 3.75H17.5C17.1685 3.75 16.8505 3.88169 16.6161 4.11612C16.3817 4.35054 16.25 4.66848 16.25 5V12.5C16.25 12.8315 16.3817 13.1495 16.6161 13.3839C16.8505 13.6183 17.1685 13.75 17.5 13.75ZM18.75 6.25H23.75L23.75 11.25L18.75 11.25L18.75 6.25ZM8.75 13.75C11.5075 13.75 13.75 11.5075 13.75 8.75C13.75 5.9925 11.5075 3.75 8.75 3.75C5.9925 3.75 3.75 5.9925 3.75 8.75C3.75 11.5075 5.9925 13.75 8.75 13.75ZM8.75 6.25C10.1287 6.25 11.25 7.37125 11.25 8.75C11.25 10.1287 10.1287 11.25 8.75 11.25C7.37125 11.25 6.25 10.1287 6.25 8.75C6.25 7.37125 7.37125 6.25 8.75 6.25Z" fill="black"/>
</svg>
