<svg width="73" height="33" viewBox="0 0 73 33" fill="none" xmlns="http://www.w3.org/2000/svg">
<path d="M5.26562 25H0.5V0.6875H5.26562V25ZM26.1562 16.2344C26.1562 17.6927 25.9583 18.9844 25.5625 20.1094C25.1771 21.2344 24.6094 22.1875 23.8594 22.9688C23.1198 23.7396 22.224 24.3229 21.1719 24.7188C20.1302 25.1146 18.9531 25.3125 17.6406 25.3125C16.4115 25.3125 15.2812 25.1146 14.25 24.7188C13.2292 24.3229 12.3385 23.7396 11.5781 22.9688C10.8281 22.1875 10.2448 21.2344 9.82812 20.1094C9.42188 18.9844 9.21875 17.6927 9.21875 16.2344C9.21875 14.2969 9.5625 12.6562 10.25 11.3125C10.9375 9.96875 11.9167 8.94792 13.1875 8.25C14.4583 7.55208 15.974 7.20312 17.7344 7.20312C19.3698 7.20312 20.8177 7.55208 22.0781 8.25C23.349 8.94792 24.3438 9.96875 25.0625 11.3125C25.7917 12.6562 26.1562 14.2969 26.1562 16.2344ZM14.0781 16.2344C14.0781 17.3802 14.2031 18.3438 14.4531 19.125C14.7031 19.9062 15.0938 20.4948 15.625 20.8906C16.1562 21.2865 16.849 21.4844 17.7031 21.4844C18.5469 21.4844 19.2292 21.2865 19.75 20.8906C20.2812 20.4948 20.6667 19.9062 20.9062 19.125C21.1562 18.3438 21.2812 17.3802 21.2812 16.2344C21.2812 15.0781 21.1562 14.1198 20.9062 13.3594C20.6667 12.5885 20.2812 12.0104 19.75 11.625C19.2188 11.2396 18.526 11.0469 17.6719 11.0469C16.4115 11.0469 15.4948 11.4792 14.9219 12.3438C14.3594 13.2083 14.0781 14.5052 14.0781 16.2344ZM35.2031 32.6875C32.7656 32.6875 30.901 32.2604 29.6094 31.4062C28.3281 30.5625 27.6875 29.375 27.6875 27.8438C27.6875 26.7917 28.0156 25.9115 28.6719 25.2031C29.3281 24.4948 30.2917 23.9896 31.5625 23.6875C31.0729 23.4792 30.6458 23.1406 30.2812 22.6719C29.9167 22.1927 29.7344 21.6875 29.7344 21.1562C29.7344 20.4896 29.9271 19.9375 30.3125 19.5C30.6979 19.0521 31.2552 18.6146 31.9844 18.1875C31.0677 17.7917 30.3385 17.1562 29.7969 16.2812C29.2656 15.4062 29 14.375 29 13.1875C29 11.9167 29.276 10.8385 29.8281 9.95312C30.3906 9.05729 31.2031 8.375 32.2656 7.90625C33.3385 7.4375 34.6406 7.20312 36.1719 7.20312C36.4948 7.20312 36.8698 7.22396 37.2969 7.26562C37.724 7.30729 38.1146 7.35417 38.4688 7.40625C38.8333 7.45833 39.0781 7.5 39.2031 7.53125H45.2969V9.95312L42.5625 10.6562C42.8125 11.0417 43 11.4531 43.125 11.8906C43.25 12.3281 43.3125 12.7917 43.3125 13.2812C43.3125 15.1562 42.6562 16.6198 41.3438 17.6719C40.0417 18.7135 38.2292 19.2344 35.9062 19.2344C35.3542 19.2031 34.8333 19.1615 34.3438 19.1094C34.1042 19.2969 33.9219 19.4948 33.7969 19.7031C33.6719 19.9115 33.6094 20.1302 33.6094 20.3594C33.6094 20.5885 33.7031 20.7812 33.8906 20.9375C34.0885 21.0833 34.3802 21.1979 34.7656 21.2812C35.1615 21.3542 35.651 21.3906 36.2344 21.3906H39.2031C41.1198 21.3906 42.5781 21.8021 43.5781 22.625C44.5885 23.4479 45.0938 24.6562 45.0938 26.25C45.0938 28.2917 44.2396 29.875 42.5312 31C40.8333 32.125 38.3906 32.6875 35.2031 32.6875ZM35.4062 29.5781C36.5417 29.5781 37.5156 29.4688 38.3281 29.25C39.151 29.0417 39.7812 28.7396 40.2188 28.3438C40.6562 27.9583 40.875 27.4948 40.875 26.9531C40.875 26.5156 40.7448 26.1667 40.4844 25.9062C40.2344 25.6562 39.849 25.4792 39.3281 25.375C38.8177 25.2708 38.1615 25.2188 37.3594 25.2188H34.8906C34.3073 25.2188 33.7812 25.3125 33.3125 25.5C32.8542 25.6875 32.4896 25.9479 32.2188 26.2812C31.9479 26.625 31.8125 27.0208 31.8125 27.4688C31.8125 28.125 32.125 28.6406 32.75 29.0156C33.3854 29.3906 34.2708 29.5781 35.4062 29.5781ZM36.1719 16.3281C37.0677 16.3281 37.724 16.0521 38.1406 15.5C38.5573 14.9479 38.7656 14.1979 38.7656 13.25C38.7656 12.1979 38.5469 11.4115 38.1094 10.8906C37.6823 10.3594 37.0365 10.0938 36.1719 10.0938C35.2969 10.0938 34.6406 10.3594 34.2031 10.8906C33.7656 11.4115 33.5469 12.1979 33.5469 13.25C33.5469 14.1979 33.7604 14.9479 34.1875 15.5C34.625 16.0521 35.2865 16.3281 36.1719 16.3281ZM64.0625 16.2344C64.0625 17.6927 63.8646 18.9844 63.4688 20.1094C63.0833 21.2344 62.5156 22.1875 61.7656 22.9688C61.026 23.7396 60.1302 24.3229 59.0781 24.7188C58.0365 25.1146 56.8594 25.3125 55.5469 25.3125C54.3177 25.3125 53.1875 25.1146 52.1562 24.7188C51.1354 24.3229 50.2448 23.7396 49.4844 22.9688C48.7344 22.1875 48.151 21.2344 47.7344 20.1094C47.3281 18.9844 47.125 17.6927 47.125 16.2344C47.125 14.2969 47.4688 12.6562 48.1562 11.3125C48.8438 9.96875 49.8229 8.94792 51.0938 8.25C52.3646 7.55208 53.8802 7.20312 55.6406 7.20312C57.276 7.20312 58.724 7.55208 59.9844 8.25C61.2552 8.94792 62.25 9.96875 62.9688 11.3125C63.6979 12.6562 64.0625 14.2969 64.0625 16.2344ZM51.9844 16.2344C51.9844 17.3802 52.1094 18.3438 52.3594 19.125C52.6094 19.9062 53 20.4948 53.5312 20.8906C54.0625 21.2865 54.7552 21.4844 55.6094 21.4844C56.4531 21.4844 57.1354 21.2865 57.6562 20.8906C58.1875 20.4948 58.5729 19.9062 58.8125 19.125C59.0625 18.3438 59.1875 17.3802 59.1875 16.2344C59.1875 15.0781 59.0625 14.1198 58.8125 13.3594C58.5729 12.5885 58.1875 12.0104 57.6562 11.625C57.125 11.2396 56.4323 11.0469 55.5781 11.0469C54.3177 11.0469 53.401 11.4792 52.8281 12.3438C52.2656 13.2083 51.9844 14.5052 51.9844 16.2344Z" fill="black"/>
<path d="M67.3281 22.7656C67.3281 21.7865 67.5938 21.099 68.125 20.7031C68.6667 20.3073 69.3177 20.1094 70.0781 20.1094C70.8177 20.1094 71.4531 20.3073 71.9844 20.7031C72.526 21.099 72.7969 21.7865 72.7969 22.7656C72.7969 23.7031 72.526 24.3802 71.9844 24.7969C71.4531 25.2135 70.8177 25.4219 70.0781 25.4219C69.3177 25.4219 68.6667 25.2135 68.125 24.7969C67.5938 24.3802 67.3281 23.7031 67.3281 22.7656Z" fill="#FFCD00"/>
</svg>
