<svg width="24" height="24" viewBox="0 0 24 24" fill="none" xmlns="http://www.w3.org/2000/svg">
<path d="M21.5999 8.8474V17.3998C21.5999 18.1955 21.2838 18.9585 20.7212 19.5211C20.1586 20.0837 19.3956 20.3998 18.5999 20.3998H5.3999C4.60425 20.3998 3.84119 20.0837 3.27858 19.5211C2.71597 18.9585 2.3999 18.1955 2.3999 17.3998V8.8474L11.6951 14.317C11.7874 14.3715 11.8927 14.4002 11.9999 14.4002C12.1071 14.4002 12.2124 14.3715 12.3047 14.317L21.5999 8.8474ZM18.5999 4.7998C19.3381 4.79969 20.0504 5.07173 20.6005 5.56389C21.1507 6.05605 21.5001 6.73377 21.5819 7.4674L11.9999 13.1038L2.4179 7.4674C2.49969 6.73377 2.84909 6.05605 3.39926 5.56389C3.94942 5.07173 4.66173 4.79969 5.3999 4.7998H18.5999Z" fill="white"/>
</svg>
